Coordinates
version=1
nRows=10
nColumns=34
inDegrees=yes

Units are S.I. units (second, meters, Newtons, ...)
If the header above contains a line with 'inDegrees', this indicates whether rotational values are in degrees (yes) or radians (no).

endheader
time	pelvis_tilt	pelvis_list	pelvis_rotation	pelvis_tx	pelvis_ty	pelvis_tz	hip_flexion_r	hip_adduction_r	hip_rotation_r	knee_angle_r	ankle_angle_r	subtalar_angle_r	mtp_angle_r	hip_flexion_l	hip_adduction_l	hip_rotation_l	knee_angle_l	ankle_angle_l	subtalar_angle_l	mtp_angle_l	lumbar_extension	lumbar_bending	lumbar_rotation	arm_flex_r	arm_add_r	arm_rot_r	elbow_flex_r	pro_sup_r	arm_flex_l	arm_add_l	arm_rot_l	elbow_flex_l	pro_sup_l
      8.05000000	    -48.90924886	      2.33663287	     -0.08254786	      0.31419908	      0.54829774	     -0.03752241	    118.25067320	    -19.39208404	     -2.89443311	    102.33990743	     34.93986398	     -4.94316395	      0.00000000	    119.99999986	    -18.53120563	     -4.24790887	    102.51026283	     29.98470012	      7.16448574	      0.00000000	    -28.66249691	     -0.69343465	     -1.42119144	    112.17856981	     13.93876888	     68.50500962	    130.82658474	     84.34956588	    121.29835149	     15.45401943	     66.02313417	    120.11551466	     78.57582507
      8.06666670	    -49.75667459	      2.22378974	     -0.16591910	      0.31173177	      0.55596431	     -0.03873844	    117.85195277	    -19.21794482	     -3.46735600	    100.72992021	     34.55975289	     -5.37920305	      0.00000000	    119.99999986	    -18.38734301	     -4.44741251	    101.47007946	     29.69527691	      7.21088493	      0.00000000	    -27.44996851	     -0.61786539	     -1.26386429	    111.08105060	     14.12021616	     69.26095916	    131.53567877	     84.21970000	    120.94086681	     15.95650249	     66.68445380	    120.37654881	     78.84032995
      8.08333330	    -49.75748552	      2.21960049	      0.04595109	      0.30819482	      0.56066260	     -0.03755286	    117.10526883	    -19.10659882	     -3.53308564	     99.63407863	     34.34540789	     -5.59889249	      0.00000000	    119.22073736	    -18.06485411	     -4.79734048	    100.38903804	     29.39985625	      7.28246932	      0.00000000	    -26.97418805	     -0.64328506	     -1.14821097	    110.56378350	     14.14626315	     69.41479220	    131.62464110	     84.14253698	    120.58330613	     16.43512866	     66.98204272	    120.49823400	     78.95683089
      8.10000000	    -49.67710605	      2.14183104	      0.28095213	      0.30646354	      0.57058058	     -0.03335229	    116.21205868	    -18.72622621	     -3.63829344	     98.41764254	     33.60400413	     -6.82531423	      0.00000000	    118.17824328	    -17.79957907	     -5.02102313	     98.89965196	     29.07088285	      7.36704919	      0.00000000	    -26.45188558	     -0.82857116	     -0.95963103	    109.86877540	     13.76266952	     69.44552210	    131.62138607	     83.97013634	    119.99288652	     16.48243000	     67.21024013	    120.54397842	     79.16765020
      8.11666670	    -49.58195979	      2.00553141	      0.55404170	      0.30219391	      0.58148213	     -0.03336027	    115.24125064	    -18.31999100	     -3.75829223	     96.82864091	     32.63672792	     -8.05186538	      0.00000000	    117.11386806	    -17.35443316	     -5.26798632	     97.00017182	     28.32174387	      7.29182995	      0.00000000	    -26.12282210	     -0.86729107	     -0.68444758	    109.60147806	     13.47643046	     68.70805655	    131.27482125	     83.75386566	    120.21277875	     16.72169329	     66.99208093	    120.35138475	     79.33063446
      8.13333330	    -49.47699866	      1.82658948	      0.83678512	      0.30300771	      0.59310977	     -0.03244142	    113.96225201	    -17.95859829	     -3.96577119	     94.96167082	     32.03166168	     -8.38183600	      0.00000000	    115.82563166	    -16.94037355	     -5.56755516	     94.94652709	     27.48313963	      7.29225504	      0.00000000	    -25.57459806	     -0.84916691	     -0.68593643	    109.20924553	     13.70020267	     68.78640308	    131.49948918	     83.68558972	    119.97256994	     16.59398226	     67.05520023	    120.36197371	     79.39126217
      8.15000000	    -49.38557981	      1.64669548	      1.16246443	      0.30162342	      0.60522203	     -0.03355369	    112.51751243	    -17.65710856	     -4.14547899	     92.84174904	     31.05234387	     -9.56074628	      0.00000000	    114.40019493	    -16.32998370	     -5.88314096	     92.79564239	     26.79553502	      6.71818882	      0.00000000	    -24.96055832	     -0.65709365	     -0.90173232	    109.19996816	     13.56335431	     68.70557149	    131.45770498	     83.54183678	    119.88722658	     16.49917103	     66.84428554	    120.08918527	     79.47306058
      8.16666670	    -49.34472318	      1.45449407	      1.41349465	      0.29863321	      0.61401900	     -0.03300911	    111.31383465	    -17.31233218	     -4.27487226	     90.87638923	     30.05529476	    -10.12828205	      0.00000000	    113.23842146	    -15.73215515	     -6.02875619	     90.78269455	     26.14879028	      6.35679311	      0.00000000	    -24.91965279	     -0.46001495	      0.20545521	    110.94884581	      9.35839079	     56.07593612	    130.55129198	     82.25932763	    122.02104695	     17.79084773	     65.09890554	    118.18947180	     79.49302118
      8.18333330	    -49.16162512	      1.48381395	      1.22988545	      0.29442005	      0.62455696	     -0.03573243	    110.12354631	    -16.67505385	     -4.32994065	     88.74604641	     29.25502724	    -10.15636628	      0.00000000	    111.95435290	    -15.36668210	     -6.19339211	     88.85579851	     25.78503216	      5.85821239	      0.00000000	    -24.39128027	     -0.31771141	      1.06202445	    111.47719664	      7.51711261	     45.41977775	    127.64779377	     81.25853500	    122.86216523	     18.00171009	     63.84362818	    117.65563790	     79.57786975
      8.20000000	    -48.88091637	      1.70382239	      1.00931847	      0.29284480	      0.63578428	     -0.03424108	    108.85337037	    -16.03527766	     -4.28769426	     86.64829664	     28.25279845	    -10.23717070	      0.00000000	    110.46368117	    -15.11161247	     -6.42855840	     86.85713827	     25.32632121	      5.38488734	      0.00000000	    -23.90721300	     -0.61249529	      1.18749572	    112.10457632	      7.15245129	     37.36409854	    123.98699745	     80.40278173	    124.60242941	     18.44860788	     63.44201053	    117.06658210	     79.77668475
